<?xml version="1.0" standalone="no"?>
<!DOCTYPE svg PUBLIC "-//W3C//DTD SVG 20010904//EN"
 "http://www.w3.org/TR/2001/REC-SVG-20010904/DTD/svg10.dtd">
<svg version="1.0" xmlns="http://www.w3.org/2000/svg"
 width="450.000000pt" height="450.000000pt" viewBox="0 0 450.000000 450.000000"
 preserveAspectRatio="xMidYMid meet">
<metadata>
Created by potrace 1.10, written by Peter Selinger 2001-2011
</metadata>
<g transform="translate(0.000000,450.000000) scale(0.050000,-0.050000)"
fill="#000000" stroke="none">
<path d="M0 4500 l0 -4500 4500 0 4500 0 0 4500 0 4500 -4500 0 -4500 0 0
-4500z m4853 2960 c210 -103 335 -301 367 -580 21 -189 27 -188 -112 -17 -132
161 -442 430 -519 449 -84 21 -389 -234 -614 -512 l-73 -90 -1 74 c-7 547 493
902 952 676z m-1126 -311 c-28 -62 -56 -147 -62 -191 -10 -78 -14 -81 -225
-189 -913 -467 -1426 -1324 -1429 -2391 l-2 -413 -115 -125 c-137 -147 -123
-153 -179 82 -199 846 107 1865 763 2545 320 332 645 546 1112 735 192 78 196
76 137 -53z m1806 60 c1351 -508 2182 -1950 1887 -3275 -51 -234 -43 -230
-190 -83 l-130 129 23 155 c146 1031 -518 2223 -1486 2665 -147 67 -154 73
-166 150 -7 44 -34 132 -60 195 -54 132 -55 131 122 64z m-660 -416 c388 -424
658 -1095 622 -1546 -13 -162 -7 -158 -142 -96 l-113 52 0 133 c-1 361 -212
844 -556 1272 l-111 139 -96 -104 c-409 -445 -686 -1228 -548 -1548 14 -32 0
-35 -137 -35 l-152 0 0 208 c0 626 294 1240 828 1728 l94 86 99 -83 c54 -45
150 -138 212 -206z m-1457 -697 c54 -54 24 -115 -136 -275 -250 -250 -455
-592 -532 -888 -54 -212 -228 -284 -228 -94 0 447 710 1443 896 1257z m2531
-68 c415 -341 830 -1223 603 -1280 -99 -25 -115 -4 -180 222 -87 305 -239 556
-495 822 -176 183 -208 247 -151 304 45 45 111 24 223 -68z m-1065 -400 c157
-35 164 -44 184 -223 13 -115 8 -120 -93 -77 -200 83 -514 88 -763 11 -73 -23
-137 -39 -141 -35 -12 13 28 261 45 278 71 71 537 99 768 46z m272 -729 c850
-116 1483 -767 1647 -1695 30 -171 35 -165 -162 -230 -777 -257 -1577 -139
-2010 297 -210 212 -368 546 -369 782 0 53 -14 71 -85 113 -117 69 -205 166
-256 281 -52 118 -46 127 42 61 106 -79 248 -146 359 -170 91 -19 100 -26 100
-78 0 -619 527 -1117 1222 -1154 269 -15 831 60 889 118 13 13 -110 355 -173
481 -364 721 -906 1029 -1576 895 -251 -50 -346 -42 -542 42 -128 55 -127 60
35 133 297 134 545 169 879 124z m-1574 -235 l0 -115 -130 -75 c-327 -188
-651 -624 -813 -1092 -52 -151 -50 -157 68 -192 474 -143 1073 -108 1378 80
l121 75 82 -82 c103 -103 87 -127 -176 -253 -446 -214 -1003 -229 -1575 -44
l-205 67 3 128 c13 540 471 1236 1002 1524 234 126 245 125 245 -21z m1600
-302 c0 -23 -138 -147 -216 -193 -54 -32 -64 -51 -76 -148 -7 -61 -24 -138
-38 -171 l-25 -60 -57 120 c-45 97 -56 149 -57 269 l-1 150 110 23 c133 28
360 35 360 10z m-1612 -199 c45 -217 152 -421 305 -583 72 -76 125 -147 119
-157 -14 -23 -184 -83 -234 -83 -88 0 -326 331 -396 550 -78 244 -74 258 108
385 73 51 62 63 98 -112z m2167 59 c159 -122 40 -496 -252 -793 l-106 -107
-113 41 c-160 59 -159 56 -17 203 88 91 154 185 210 298 73 149 90 203 133
403 8 40 19 51 36 38 13 -9 62 -47 109 -83z m-3505 -558 c-94 -232 -162 -573
-140 -703 12 -74 18 -79 171 -139 186 -73 505 -162 584 -162 132 0 -37 -97
-247 -142 -755 -162 -1085 812 -414 1222 95 58 98 53 46 -76z m4773 36 c545
-408 346 -1201 -302 -1200 -123 0 -218 21 -376 83 -132 52 -132 68 2 84 144
17 424 100 584 172 l129 58 0 137 c0 148 -76 497 -140 642 -60 135 -49 138
103 24z m-2859 -1193 c208 -47 639 -48 840 -1 168 40 222 29 247 -48 36 -114
-211 -183 -661 -183 -429 -1 -670 59 -670 165 0 101 42 112 244 67z m-1052
-220 c883 -597 2038 -603 2930 -16 l160 106 90 -40 c49 -21 125 -45 170 -53
116 -20 107 -37 -103 -197 -844 -642 -1986 -766 -2991 -325 -197 86 -621 354
-706 445 -53 58 -56 55 108 93 55 12 123 35 150 50 28 16 51 29 52 29 2 1 65
-41 140 -92z"/>
</g>
</svg>
